<svg xmlns="http://www.w3.org/2000/svg" width="369" height="85" fill="none" viewBox="0 0 369 85">
  <path fill="#101520" d="m141.86 49.27-3.3 6.34h-18.68c-3.49 0-6.02-.66-7.58-1.97-1.54-1.31-2.3-3.33-2.3-6.05V27.77h31.87l-3.3 6.34h-15.32c-1.02 0-4.65.02-4.65.02s-.15 3.55-.15 4.25v.05h18.63l-3.3 6.34h-15.33v.24c0 .74.06 1.38.19 1.92.13.51.35.94.67 1.3.35.35.83.62 1.44.82.64.16 1.47.24 2.5.24h18.62l-.01-.02Zm73.38 0-3.3 6.34h-18.68c-3.49 0-6.02-.66-7.58-1.97-1.54-1.31-2.3-3.33-2.3-6.05V27.77h31.87l-3.3 6.34h-15.32c-1.02 0-4.65.02-4.65.02s-.15 3.55-.15 4.25v.05h18.63l-3.3 6.34h-15.33v.24c0 .74.06 1.38.19 1.92.13.51.35.94.67 1.3.35.35.83.62 1.44.82.64.16 1.47.24 2.5.24h18.62l-.01-.02Zm-59.02-12.34c.32 1.34.72 2.75 1.2 4.22a65.68 65.68 0 0 0 1.54 3.98c.54 1.18 1.07 2.16 1.58 2.93s.96 1.15 1.34 1.15h.43c.45 0 .9-.27 1.34-.82.45-.54.96-1.6 1.54-3.17.61-1.57 1.33-3.74 2.16-6.53.83-2.82 1.86-6.46 3.07-10.94h8.69l-5.23 19.87c-.19.74-.54 1.57-1.06 2.5-.51.9-1.12 1.76-1.82 2.59-.67.8-1.44 1.49-2.3 2.06-.83.54-1.68.82-2.54.82h-7.87c-.86 0-1.71-.24-2.54-.72-.8-.51-1.55-1.15-2.26-1.92-.67-.77-1.26-1.62-1.78-2.54-.48-.96-.85-1.89-1.1-2.78l-5.47-19.87h8.74l2.35 9.17h-.01Zm69.94 1.44V55.6h-8.45V35.78c0-2.72.77-4.74 2.3-6.05 1.57-1.31 4.1-1.97 7.58-1.97h12.1c3.49 0 6 .66 7.54 1.97 1.57 1.31 2.35 3.33 2.35 6.05V55.6h-8.45V38.37c0-.7-.06-1.33-.19-1.87s-.37-.99-.72-1.34c-.32-.35-.8-.61-1.44-.77-.64-.19-1.46-.29-2.45-.29h-5.38c-1.02 0-1.86.1-2.5.29-.61.16-1.09.42-1.44.77-.32.35-.54.8-.67 1.34s-.19 1.17-.19 1.87h.01Zm58.85-4.27H273.4v21.51h-8.45V34.1h-11.62v-6.33h31.68v6.33ZM313.14 45V27.77h8.45v19.82c0 2.72-.78 4.74-2.35 6.05-1.54 1.31-4.05 1.97-7.54 1.97h-12.1c-3.49 0-6.02-.66-7.58-1.97-1.54-1.31-2.3-3.33-2.3-6.05V27.77h8.45V45c0 .74.06 1.38.19 1.92.13.51.35.94.67 1.3.35.35.83.62 1.44.82.64.16 1.47.24 2.5.24h5.38c.99 0 1.81-.08 2.45-.24.64-.19 1.12-.46 1.44-.82.35-.35.59-.78.72-1.3.13-.54.19-1.18.19-1.92h-.01Zm22.65 10.61h-8.45V35.79c0-2.72.77-4.74 2.3-6.05 1.57-1.31 4.1-1.97 7.58-1.97h21.07c3.49 0 6 .66 7.54 1.97 1.57 1.31 2.35 3.33 2.35 6.05v19.82h-8.45V38.38c0-.7-.04-3.81-.04-3.81l-7.78-.02v21.06h-8.45V34.55l-7.76.02.08 21.04h.01Z"/>
  <path fill="#FF7262" d="M47.828 2.39 48.939 0H22.135L11.48 20.29h27.436l8.911-17.9ZM22.135 84.349h26.804L38.743 63.826H11.365l10.77 20.523Zm4.669-42.171L37.131 23.87l1.786-3.58H11.481L0 42.178l11.365 21.648h27.378l-.871-1.757-11.068-19.89Z"/>
  <path fill="#1ABCFE" d="M102.88 2.554 104 .199H76.802L66 20.199h27.831l9.049-17.645Z"/>
  <path fill="#0ACF83" d="M76.9 84.199H104l-10.304-20H66l10.9 20Z"/>
  <path fill="#A259FF" d="M51.141 42.32 40.783 23.817 39 20.2h27.492L78 42.32 66.609 64.199H39.167l.874-1.776 11.1-20.103Z"/>
</svg>
